<?xml version="1.0" encoding="utf-8"?><svg viewBox="0 0 82 76" xmlns="http://www.w3.org/2000/svg" xmlns:xlink="http://www.w3.org/1999/xlink"><style>:root>svg{display:none}:root>svg:target{display:block}</style><svg fill="none" viewBox="0 0 74 69" id="food-desktop" xmlns="http://www.w3.org/2000/svg"><path d="M69.054 46H4.262c-2.3 0-4.121 2-4.121 4.3v3.5c0 2.3 1.82 4.2 4.121 4.2h.959v1c0 5.5 4.313 9.9 9.488 9.9h43.898c5.272 0 9.489-4.5 9.489-9.9v-1h.958c2.205 0 4.122-1.9 4.122-4.3v-3.5c0-2.2-1.821-4.2-4.122-4.2zm-3.738 13c0 3.8-2.97 6.9-6.613 6.9h-44.09C10.972 65.9 8 62.8 8 59v-1h57.316v1zm4.984-5.3c0 .7-.575 1.3-1.246 1.3H4.262c-.67 0-1.246-.6-1.246-1.3v-3.5c0-.6.575-1.2 1.246-1.2H69.15c.671 0 1.246.6 1.246 1.3v3.4H70.3zM15.668 37.9l5.176 4 5.271-4 5.272 4 5.271-4 5.176 4 5.271-4 5.272 4 5.272-4 5.271 4 6.039-4.7-1.63-2.4-4.409 3.3-5.271-4-5.272 4-5.272-4-5.271 4-5.176-4-5.271 4-5.272-4-5.271 4-5.176-4-5.272 4-4.409-3.3-1.725 2.4 6.134 4.7 5.272-4zM68.096 31.1c0-.6.096-2.6 0-3C67.425 12.5 53.623 0 36.658 0 19.693 0 5.795 12.5 5.125 28.1v3h62.97zM36.658 3C51.993 3 64.645 14.2 65.22 28.1H8C8.67 14.2 21.323 3 36.658 3z" fill="#81B3D2"/><path d="M36.658 17c1.059 0 1.917-.895 1.917-2s-.858-2-1.917-2c-1.059 0-1.917.895-1.917 2s.858 2 1.917 2zM28.99 12.1c1.06 0 1.917-.896 1.917-2 0-1.105-.858-2-1.917-2-1.058 0-1.916.895-1.916 2 0 1.104.858 2 1.916 2zM44.326 12.1c1.059 0 1.917-.896 1.917-2 0-1.105-.858-2-1.917-2-1.059 0-1.917.895-1.917 2 0 1.104.858 2 1.917 2z" fill="#81B3D2"/></svg><svg fill="none" viewBox="0 0 82 68" id="food-mobile" xmlns="http://www.w3.org/2000/svg"><path d="M76.529 45.332H5.36c-2.526 0-4.527 1.971-4.527 4.238v3.45c0 2.266 2 4.138 4.527 4.138h1.053v.986c0 5.42 4.738 9.756 10.423 9.756h48.217c5.79 0 10.423-4.435 10.423-9.756v-.986h1.053c2.421 0 4.526-1.872 4.526-4.237v-3.45c0-2.168-2-4.139-4.526-4.139zm-4.106 12.812c0 3.745-3.264 6.8-7.264 6.8H16.73c-4 0-7.264-3.055-7.264-6.8v-.986h62.957v.986zm5.474-5.223c0 .69-.632 1.28-1.368 1.28H5.36c-.737 0-1.368-.59-1.368-1.28v-3.45c0-.59.631-1.182 1.368-1.182h71.274c.737 0 1.368.591 1.368 1.281v3.35h-.105zM17.889 37.35l5.684 3.941 5.79-3.941 5.791 3.941 5.79-3.941 5.685 3.941 5.79-3.941 5.791 3.941L64 37.35l5.79 3.941 6.633-4.631-1.79-2.365-4.842 3.252L64 33.605l-5.79 3.942-5.791-3.942-5.79 3.942-5.686-3.942-5.79 3.942-5.79-3.942-5.79 3.942-5.686-3.942-5.79 3.942-4.843-3.252L5.36 36.66l6.738 4.632 5.79-3.942zM75.476 30.649c0-.592.105-2.563 0-2.957C74.739 12.32 59.579 0 40.944 0 22.31 0 7.044 12.319 6.308 27.692v2.957h69.168zM40.944 2.956c16.845 0 30.742 11.038 31.373 24.736H9.467C10.202 13.994 24.1 2.956 40.943 2.956z" fill="#81B3D2"/><path d="M40.944 16.753c1.163 0 2.106-.882 2.106-1.97 0-1.09-.943-1.972-2.106-1.972-1.162 0-2.105.883-2.105 1.971 0 1.089.943 1.971 2.105 1.971zM32.522 11.924c1.163 0 2.106-.882 2.106-1.971s-.943-1.97-2.106-1.97c-1.163 0-2.105.881-2.105 1.97s.942 1.971 2.105 1.971zM49.367 11.924c1.163 0 2.105-.882 2.105-1.971s-.942-1.97-2.105-1.97-2.106.881-2.106 1.97.943 1.971 2.106 1.971z" fill="#81B3D2"/></svg><svg fill="none" viewBox="0 0 23 22" id="hamburger-menu" xmlns="http://www.w3.org/2000/svg"><path d="M22.9 0H0v4h22.9V0zM22.9 9H0v4h22.9V9zM22.9 18H0v4h22.9v-4z" fill="#81B3D2"/></svg><svg fill="none" viewBox="0 0 78 72" id="housing-desktop" xmlns="http://www.w3.org/2000/svg"><path d="M30.878 64.939h16.499V41.17H30.878v23.768zm13.508-2.884H33.87v-18h10.414v18h.103z" fill="#81B3D2"/><path d="M75.321 39.182l2.166-2.088-10.209-9.845V.398h-14.23v13.127L38.921 0 .46 37.193l2.166 2.089 8.043-7.757v37.591H6.646V72h65.891v-2.884h-5.259v-37.69l8.043 7.756zM56.04 3.382h8.146v20.983l-8.147-7.857V3.381zm8.249 65.635H13.76V28.54l25.16-24.364L64.185 28.54v40.476h.103z" fill="#81B3D2"/><path d="M31.188 27.05c0 4.275 3.609 7.756 7.94 7.756 4.434 0 8.043-3.48 8.043-7.757 0-4.276-3.61-7.657-8.043-7.657-4.434 0-7.94 3.38-7.94 7.657zm7.94-4.973c2.784 0 5.155 2.188 5.155 4.972 0 2.685-2.268 4.972-5.155 4.972-2.784 0-5.156-2.187-5.156-4.972 0-2.685 2.372-4.972 5.156-4.972zM20.98 41.17h-3.094v3.88h3.093v-3.88zM27.063 41.17H23.97v3.88h3.093v-3.88zM20.98 47.139h-3.094v3.878h3.093V47.14zM27.063 47.139H23.97v3.878h3.093V47.14zM53.873 41.17H50.78v3.88h3.093v-3.88zM60.06 41.17h-3.093v3.88h3.093v-3.88zM53.873 47.139H50.78v3.878h3.093V47.14zM60.06 47.139h-3.093v3.878h3.093V47.14z" fill="#81B3D2"/></svg><svg fill="none" viewBox="0 0 40 40" id="housing-mobile" xmlns="http://www.w3.org/2000/svg"><path d="M15.902 34.804h8.353V22.646h-8.353v12.158zm6.839-1.475h-5.325V24.12h5.273v9.208h.052z" fill="#81B3D2"/><path d="M38.404 21.628l1.096-1.069-5.169-5.036V1.788h-7.205v6.715l-7.152-6.918L.5 20.61l1.096 1.069L5.67 17.71V36.94H3.633v1.475h33.361V36.94h-2.663V17.66l4.073 3.968zM28.64 3.314h4.124v10.734l-4.124-4.019V3.314zm4.176 33.575H7.235V16.185L19.974 3.72l12.791 12.464v20.704h.052z" fill="#81B3D2"/><path d="M16.058 15.422c0 2.187 1.828 3.968 4.02 3.968 2.245 0 4.073-1.781 4.073-3.968 0-2.188-1.828-3.918-4.073-3.918s-4.02 1.73-4.02 3.918zm4.02-2.544c1.41 0 2.61 1.12 2.61 2.544 0 1.373-1.148 2.543-2.61 2.543-1.41 0-2.61-1.119-2.61-2.543 0-1.374 1.2-2.544 2.61-2.544zM10.89 22.646H9.322v1.984h1.566v-1.984zM13.97 22.646h-1.566v1.984h1.566v-1.984zM10.89 25.698H9.322v1.983h1.566v-1.983zM13.97 25.698h-1.566v1.983h1.566v-1.983zM27.544 22.646h-1.566v1.984h1.566v-1.984zM30.677 22.646H29.11v1.984h1.566v-1.984zM27.544 25.698h-1.566v1.983h1.566v-1.983zM30.677 25.698H29.11v1.983h1.566v-1.983z" fill="#81B3D2"/></svg><svg fill="none" viewBox="0 0 27 35" id="htmlacademy" xmlns="http://www.w3.org/2000/svg"><path d="M13.65.45h-.1L.05 1.85v24.7l13.5 8 13.4-8V1.85L13.65.45zm11.4 12.1l-11.5-6.8v-.1h-.1l-.1-.1v.1l-11.4 6.9v-9l11.5-1.2 11.6 1.2v9zm-11.6-5.3l11.5 6.7-4.5 2.6-7.1-4.2v1.4l5.9 3.5-.9.5-5-3v1.4l3.8 2.3-.8.5-3-1.8v1.4l1.9 1.1-1.8 1.1-11.4-6.7 11.4-6.8zm-11.5 8.3l11.4 6.8v1l-7.9-4.7v1.4l8 4.8v1.1l-8-4.7v1.4l8 4.8 8.1-4.9v-5.2l3.4-2v10l-11.5 6.9-11.5-6.8v-9.9z" fill="#000"/></svg><svg fill="none" viewBox="0 0 23 21" id="like-icon" xmlns="http://www.w3.org/2000/svg"><path opacity=".3" d="M12.964 3.78l-.628 3.045-.627 2.625h9.096v2.205L17.773 18.9h-9.41V8.4l4.6-4.62zM2.09 10.5v8.4-8.4zM13.8 0L6.9 6.93c-.418.315-.627.84-.627 1.47v10.5c0 1.155.94 2.1 2.09 2.1h9.41c.836 0 1.568-.525 1.881-1.26l3.137-7.455c.104-.21.104-.525.104-.735v-2.1H23c0-1.155-.94-2.1-2.09-2.1h-6.587l1.045-4.83v-.315c0-.42-.209-.84-.418-1.155L13.8 0zM4.182 8.4H0V21h4.182V8.4z" fill="#000"/></svg><svg fill="none" viewBox="0 0 23 21" id="like-icon-white" xmlns="http://www.w3.org/2000/svg"><path d="M12.964 3.78l-.628 3.045-.627 2.625h9.096v2.205L17.773 18.9h-9.41V8.4l4.6-4.62zM2.09 10.5v8.4-8.4zM13.8 0L6.9 6.93c-.418.315-.627.84-.627 1.47v10.5c0 1.155.94 2.1 2.09 2.1h9.41c.836 0 1.568-.525 1.881-1.26l3.137-7.455c.104-.21.104-.525.104-.735v-2.1H23c0-1.155-.94-2.1-2.09-2.1h-6.587l1.045-4.83v-.315c0-.42-.209-.84-.418-1.155L13.8 0zM4.182 8.4H0V21h4.182V8.4z" fill="#fff"/></svg><svg fill="none" viewBox="0 0 58 58" id="mail" xmlns="http://www.w3.org/2000/svg"><path fill="#E6E6E6" d="M0 0h58v58H0z"/><path d="M29 31c-.3 0-.5-.1-1-.3L21 27v7c0 .5.5 1 1 1h14c.5 0 1-.5 1-1v-7l-7 3.7c-.5.2-.7.3-1 .3zm7-8H22c-.5 0-1 .5-1 1v.8l8 4.2 8-4.2V24c0-.5-.5-1-1-1z" fill="#000"/></svg><svg fill="none" viewBox="0 0 58 58" id="phone" xmlns="http://www.w3.org/2000/svg"><path fill="#E6E6E6" d="M0 0h58v58H0z"/><path d="M23.6 27.8c1.4 2.8 3.8 5.1 6.6 6.6l2.2-2.2c.3-.3.7-.4 1-.2 1.1.4 2.3.6 3.6.6.6 0 1 .4 1 1V37c0 .6-.4 1-1 1-9.4 0-17-7.6-17-17 0-.6.4-1 1-1h3.5c.6 0 1 .4 1 1 0 1.2.2 2.4.6 3.6.1.3 0 .7-.2 1l-2.3 2.2z" fill="#010101"/></svg><svg fill="none" viewBox="0 0 78 76" id="souvenirs-desktop" xmlns="http://www.w3.org/2000/svg"><path d="M74.443 22.124h-30c16.721-6.8 18.073-11.1 17.459-13.5-1.353-3.9-6.886-6.9-12.05-5.3-6.762 2.1-8.606 10.3-10.45 16.2-2.336-6-4.55-13.6-9.836-17.5-1.476-1.1-3.689-2.2-7.009-2-4.918.4-11.926 5.3-8.975 10.8 2.705 5.3 11.68 8.7 17.705 11.4H3.869c-1.967 0-3.443 1.3-3.443 2.8v11.2c0 1.6 1.599 2.8 3.443 2.8h.369v36H74.32v-36h.123c1.967 0 3.442-1.3 3.442-2.8v-11.2c0-1.6-1.598-2.9-3.442-2.9zM51.82 5.824c2.582-.3 6.024 1.3 6.393 3.2.492 2.7-4.057 5.2-6.147 6.3-3.074 1.7-6.025 2.6-8.853 4 .984-3.7 3.074-12.9 8.607-13.5zm-27.787 9.8c-2.705-1.5-7.869-4.4-7.746-7.7.123-3.6 7.008-6.5 10.697-3.8 4.672 3.3 6.885 11 8.606 16.4-3.934-1.6-7.623-2.8-11.557-4.9zm7.254 56.4H7.803v-33h23.484v33zm0-36H4.115v-10.9h27.172v10.9zm12.295 36h-8.73v-46.9h8.73v46.9zm27.05 0H47.27v-33h23.484v33h-.123zm3.565-36H47.27v-10.9h26.927v10.9z" fill="#81B3D2"/></svg><svg fill="none" viewBox="0 0 67 75" id="souvenirs-mobile" xmlns="http://www.w3.org/2000/svg"><path d="M64.016 22.117H38.258C52.615 15.319 53.776 11.02 53.248 8.62c-1.16-3.899-5.911-6.898-10.345-5.298-5.806 2.099-7.39 10.296-8.973 16.194-2.006-5.998-3.906-13.595-8.445-17.494-1.267-1.1-3.167-2.2-6.017-2-4.223.4-10.24 5.299-7.706 10.797 2.322 5.299 10.028 8.697 15.2 11.397H3.423c-1.689 0-2.956 1.3-2.956 2.799v11.196c0 1.6 1.373 2.8 2.956 2.8h.317V75H63.91V39.011h.106c1.689 0 2.956-1.3 2.956-2.799V25.016c0-1.6-1.373-2.9-2.956-2.9zM44.592 5.822c2.217-.3 5.173 1.3 5.49 3.199.422 2.699-3.484 5.198-5.279 6.298-2.639 1.7-5.172 2.599-7.6 3.999.844-3.7 2.639-12.896 7.39-13.496zm-23.857 9.797c-2.323-1.5-6.756-4.399-6.65-7.698.105-3.599 6.016-6.498 9.183-3.799 4.012 3.3 5.912 10.997 7.39 16.395-3.378-1.6-6.545-2.799-9.923-4.898zM26.963 72H6.8V39.01h20.163v32.99zm0-35.989H3.633V25.116h23.33v10.896zm10.556 35.989h-7.495V25.116h7.495V72zm23.224 0H40.686V39.01H60.85v32.99h-.105zm3.062-35.989H40.686V25.116h23.119v10.896z" fill="#81B3D2"/></svg><svg fill="none" viewBox="0 0 24 24" id="telegram" xmlns="http://www.w3.org/2000/svg"><path d="M22.44 4.622l-3.17 14.944c-.239 1.055-.862 1.317-1.748.82l-4.828-3.558-2.33 2.242c-.258.258-.473.473-.97.473l.347-4.917 8.948-8.086c.39-.346-.084-.54-.604-.192L7.022 13.314 2.26 11.823c-1.036-.323-1.055-1.036.216-1.533l18.627-7.177c.863-.323 1.617.192 1.336 1.51z" fill="#fff"/></svg><svg fill="none" viewBox="0 0 22 16" id="tick" xmlns="http://www.w3.org/2000/svg"><path d="M21.805 1.307L20.76.222c-.285-.296-.856-.296-1.141 0L8.298 11.957 2.403 5.843c-.286-.296-.856-.296-1.142 0L.214 6.928c-.285.295-.285.887 0 1.183l7.419 7.692c.19.197.38.197.57.197.191 0 .381-.099.571-.197L21.615 2.49c.476-.296.476-.789.19-1.183z" fill="#333"/></svg><svg fill="none" viewBox="0 0 22 16" id="tick-disabled" xmlns="http://www.w3.org/2000/svg"><path d="M21.805 1.307L20.76.222c-.285-.296-.856-.296-1.141 0L8.298 11.957 2.403 5.843c-.286-.296-.856-.296-1.142 0L.214 6.928c-.285.295-.285.887 0 1.183l7.419 7.692c.19.197.38.197.57.197.191 0 .381-.099.571-.197L21.615 2.49c.476-.296.476-.789.19-1.183z" fill="#333" fill-opacity=".3"/></svg><svg fill="none" viewBox="0 0 48 54" id="video-play-icon" xmlns="http://www.w3.org/2000/svg"><path d="M48 27L0 54V0l48 27z" fill="#fff"/></svg><svg fill="none" viewBox="0 0 24 24" id="vk" xmlns="http://www.w3.org/2000/svg"><g clip-path="url(#qclip0_42_986)"><path fill-rule="evenodd" clip-rule="evenodd" d="M23.45 5.948c.166-.546 0-.948-.795-.948H20.03c-.668 0-.976.347-1.143.73 0 0-1.335 3.196-3.226 5.272-.612.602-.89.793-1.224.793-.167 0-.418-.191-.418-.738V5.948c0-.656-.184-.948-.74-.948H9.151c-.417 0-.668.304-.668.593 0 .621.946.765 1.043 2.513v3.798c0 .833-.153.984-.487.984-.89 0-3.055-3.211-4.34-6.885C4.45 5.288 4.198 5 3.527 5H.9c-.75 0-.9.347-.9.73 0 .682.89 4.07 4.145 8.551C6.315 17.341 9.37 19 12.153 19c1.669 0 1.875-.368 1.875-1.003v-2.313c0-.737.158-.884.687-.884.39 0 1.057.192 2.615 1.667C19.11 18.216 19.403 19 20.405 19h2.625c.75 0 1.126-.368.91-1.096-.238-.724-1.088-1.775-2.215-3.022-.612-.71-1.53-1.475-1.809-1.858-.389-.491-.278-.71 0-1.147 0 0 3.2-4.426 3.533-5.929h.001z" fill="#fff"/></g><defs><clipPath id="qclip0_42_986"><path fill="#fff" d="M0 0h24v24H0z"/></clipPath></defs></svg><svg fill="none" viewBox="0 0 24 24" id="youtube" xmlns="http://www.w3.org/2000/svg"><path d="M19.181 5H4.813C3.306 5 2 6.3 2 7.8v8.3C2 17.7 3.306 19 4.813 19h14.368c1.608 0 2.814-1.3 2.814-2.8V7.8c.1-1.5-1.206-2.8-2.814-2.8zM9.033 15.4V8.6l6.833 3.4-6.833 3.4z" fill="#fff"/></svg></svg>